# xmcd
#
# Track frame offsets: 
#        150
#        17578
#        36746
#        57462
#        75706
#        100275
#        116927
#        139982
#
# Disc length: 2085 seconds
#
# Revision: 0
# Processed by: cddbd v1.5.2PL0 Copyright (c) Steve Scherf et al.
# Submitted via: ExactAudioCopy v1.0b1
#
DISCID=74082308
DTITLE=Howard Johnson - Keepin' Love New
DYEAR=1982
DGENRE=Funk
TTITLE0=Keepin' Love New
TTITLE1=So Glad You're My Lady
TTITLE2=Say You Wanna
TTITLE3=Forever Falling In Love
TTITLE4=So Fine
TTITLE5=Take Me Through The Night
TTITLE6=This Is Heaven
TTITLE7=Jam Song
EXTD=
EXTT0=
EXTT1=
EXTT2=
EXTT3=
EXTT4=
EXTT5=
EXTT6=
EXTT7=
PLAYORDER=
